PathFileType	4	(X/Y/Z)	5_coords_data.trc
DataRate	CameraRate	NumFrames	NumMarkers	Units	OrigDataRate	OrigDataStartFrame	OrigNumFrames
30.0	30.0	8	21	m	30.0	20	68
Frame#	Time	THUMB_TIP	THUMB_IP	THUMB_MCP	THUMB_CMC	INDEX_TIP	INDEX_DIP	INDEX_PIP	INDEX_MCP	MIDDLE_TIP	MIDDLE_DIP	MIDDLE_PIP	MIDDLE_MCP	RING_TIP	RING_DIP	RING_PIP	RING_MCP	PINKY_TIP	PINKY_DIP	PINKY_PIP	PINKY_MCP	WRIST
X1	Y1	Z1	X2	Y2	Z2	X3	Y3	Z3	X4	Y4	Z4	X5	Y5	Z5	X6	Y6	Z6	X7	Y7	Z7	X8	Y8	Z8	X9	Y9	Z9	X10	Y10	Z10	X11	Y11	Z11	X12	Y12	Z12	X13	Y13	Z13	X14	Y14	Z14	X15	Y15	Z15	X16	Y16	Z16	X17	Y17	Z17	X18	Y18	Z18	X19	Y19	Z19	X20	Y20	Z20	X21	Y21	Z21
19	0.6333333333333333	-0.022409099578857422	-0.12710199737548827	1.0347099609375	-0.005456500053405762	-0.11452400207519531	1.047	-0.000581678986549377	-0.09835859680175782	1.0712900390625	-0.01631049919128418	-0.0754304962158203	1.0803499755859376	-0.00776963996887207	-0.19756300354003906	1.0476600341796876	-0.010261899948120117	-0.1800780029296875	1.06075	-0.015506500244140626	-0.16409700012207032	1.0743800048828125	-0.024113000869750975	-0.13425100708007812	1.09306005859375	-0.014665200233459472	-0.09193060302734375	1.055760009765625	-0.01701420021057129	-0.11261599731445313	1.055	-0.01941580009460449	-0.1378800048828125	1.0581400146484374	-0.04299409866333008	-0.13244900512695312	1.0911400146484376	-0.015221400260925293	-0.09616049957275391	1.0461800537109376	-0.024455400466918947	-0.11390000152587891	1.045219970703125	-0.03699549865722656	-0.13573399353027343	1.04806005859375	-0.05438309860229492	-0.12389900207519532	1.0773299560546874	-0.0770449981689453	-0.1698459930419922	1.03602001953125	-0.07132749938964844	-0.151375	1.0443499755859376	-0.06603749847412109	-0.13624200439453124	1.0518900146484376	-0.05713840103149414	-0.11339600372314453	1.0611400146484375	-0.04196500015258789	-0.05932180023193359	1.1001199951171876
20	0.6666666666666666	-0.02273859977722168	-0.12699099731445312	1.0346700439453125	-0.005794640064239502	-0.1144219970703125	1.047	-0.000712087988853454	-0.09829000091552734	1.071300048828125	-0.016788400650024415	-0.0751593017578125	1.0803299560546875	-0.008104120254516602	-0.19747500610351562	1.047469970703125	-0.010538700103759766	-0.18001800537109375	1.0605799560546876	-0.015792699813842775	-0.1639830017089844	1.07422998046875	-0.024297500610351564	-0.134031005859375	1.093260009765625	-0.014854900360107422	-0.09189739990234375	1.055469970703125	-0.017297399520874022	-0.11252799987792969	1.05497998046875	-0.019650100708007812	-0.13773300170898437	1.0583499755859376	-0.04348889923095703	-0.1319720001220703	1.0911300048828125	-0.015524700164794921	-0.09609400177001953	1.046010009765625	-0.024725200653076172	-0.11373899841308593	1.0451400146484375	-0.03724769973754883	-0.13552499389648437	1.0478299560546875	-0.05456589889526367	-0.12377200317382812	1.077239990234375	-0.07729709625244141	-0.1696580047607422	1.0359100341796874	-0.0715614013671875	-0.1512100067138672	1.044239990234375	-0.06625389862060548	-0.13605400085449218	1.05172998046875	-0.0573026008605957	-0.1134459991455078	1.0611099853515624	-0.04218949890136719	-0.05912229919433594	1.100219970703125
21	0.7	-0.023020700454711916	-0.1269540023803711	1.03456005859375	-0.006107970237731934	-0.11431199645996094	1.047010009765625	-0.001011880040168762	-0.09819319915771485	1.0712099609375	-0.016887399673461916	-0.0751719970703125	1.0800899658203125	-0.008550149917602539	-0.19753900146484374	1.047300048828125	-0.010979900360107422	-0.18001199340820312	1.06047998046875	-0.016165199279785155	-0.1639459991455078	1.0741400146484374	-0.02468829917907715	-0.13406900024414062	1.0931600341796874	-0.015170900344848633	-0.09172660064697266	1.055550048828125	-0.017592300415039064	-0.11236799621582032	1.0548499755859375	-0.02001889991760254	-0.13773399353027344	1.05772998046875	-0.0438125991821289	-0.1318450012207031	1.09131005859375	-0.015873900413513185	-0.09601319885253906	1.046	-0.025066400527954103	-0.11365499877929687	1.045050048828125	-0.03754840087890625	-0.13545700073242187	1.0478499755859374	-0.054765899658203124	-0.1238010025024414	1.077489990234375	-0.07749019622802734	-0.16961000061035156	1.0358199462890625	-0.07179579925537109	-0.15117100524902344	1.0441500244140625	-0.06649050140380859	-0.13604100036621095	1.0516099853515626	-0.0576702995300293	-0.11336199951171876	1.0608599853515626	-0.04252000045776367	-0.05907649993896484	1.10027001953125
22	0.7333333333333333	-0.023396400451660155	-0.12694200134277345	1.034530029296875	-0.006436059951782227	-0.114322998046875	1.0469000244140625	-0.001322710037231445	-0.09821869659423828	1.07106005859375	-0.017211000442504884	-0.07523709869384766	1.0800799560546874	-0.008854479789733886	-0.19746099853515625	1.04727001953125	-0.011249400138854981	-0.18002299499511717	1.0604200439453124	-0.01639489936828613	-0.1639550018310547	1.0740799560546874	-0.024873199462890624	-0.134125	1.09297998046875	-0.015490599632263184	-0.09173429870605469	1.05556005859375	-0.017917699813842773	-0.11234300231933594	1.054530029296875	-0.02025040054321289	-0.13763400268554687	1.057780029296875	-0.0439385986328125	-0.1320299987792969	1.0914200439453126	-0.01619490051269531	-0.09596630096435547	1.0458599853515624	-0.025367200851440428	-0.11364900207519531	1.04506005859375	-0.0378922004699707	-0.13545599365234376	1.0477900390625	-0.05526520156860352	-0.12389499664306641	1.0771800537109375	-0.07770919799804688	-0.16968800354003907	1.0358599853515624	-0.07206130218505859	-0.15125100708007813	1.044219970703125	-0.06680269622802734	-0.13610000610351564	1.0516800537109374	-0.05811819839477539	-0.11329299926757813	1.0610699462890625	-0.04289080047607422	-0.05910110092163086	1.10025
23	0.7666666666666667	-0.023772899627685546	-0.12698899841308595	1.0344000244140625	-0.006878059864044189	-0.11436900329589844	1.046800048828125	-0.0019355599880218502	-0.0982781982421875	1.07097998046875	-0.017611299514770508	-0.0752344970703125	1.08027001953125	-0.009226409912109376	-0.19759300231933594	1.0471600341796874	-0.011612000465393067	-0.17998800659179687	1.06031005859375	-0.016771799087524415	-0.16398800659179688	1.07397998046875	-0.02526930046081543	-0.1341060028076172	1.093030029296875	-0.01588070011138916	-0.09178739929199219	1.0553299560546876	-0.018305999755859375	-0.11243099975585938	1.05472998046875	-0.020703699111938475	-0.1378280029296875	1.0576700439453126	-0.04424639892578125	-0.13212300109863281	1.0915400390625	-0.01654949951171875	-0.09599849700927734	1.0458199462890625	-0.025751699447631837	-0.113697998046875	1.0449100341796875	-0.038264900207519534	-0.1354949951171875	1.047780029296875	-0.05577009963989258	-0.12377400207519532	1.07722998046875	-0.0780634994506836	-0.16976100158691407	1.0358499755859376	-0.07241889953613281	-0.15126300048828126	1.044199951171875	-0.067158203125	-0.13610899353027345	1.0516400146484375	-0.05851039886474609	-0.11330999755859375	1.0611400146484375	-0.04306439971923828	-0.05912120056152344	1.10018994140625
24	0.8	-0.024145999908447267	-0.12705899810791016	1.0343299560546875	-0.007296929836273194	-0.1143479995727539	1.046719970703125	-0.002020740032196045	-0.09819719696044922	1.0708599853515626	-0.017643600463867187	-0.07526010131835938	1.0799000244140624	-0.009498370170593263	-0.19746299743652343	1.04702001953125	-0.01190779972076416	-0.17997500610351563	1.0601700439453126	-0.017048099517822265	-0.16401199340820313	1.0738499755859374	-0.02541379928588867	-0.1341060028076172	1.092719970703125	-0.01613949966430664	-0.09185199737548828	1.0549000244140625	-0.018692399978637694	-0.11241699981689453	1.0546600341796875	-0.02109239959716797	-0.13777900695800782	1.0576800537109374	-0.044552200317382815	-0.13215499877929687	1.090949951171875	-0.017002599716186523	-0.0960260009765625	1.045699951171875	-0.026181900024414062	-0.11376200103759766	1.04477001953125	-0.03867210006713867	-0.13551499938964845	1.047719970703125	-0.05597060012817383	-0.12381300354003906	1.07743994140625	-0.07846209716796874	-0.16971200561523436	1.035739990234375	-0.07282019805908203	-0.15126800537109375	1.0441500244140625	-0.06755349731445312	-0.13610800170898438	1.0516199951171874	-0.05892340087890625	-0.11331099700927734	1.061030029296875	-0.043292400360107425	-0.059252601623535156	1.1
25	0.8333333333333334	-0.024452499389648438	-0.12701200103759766	1.034260009765625	-0.007658569812774658	-0.11431099700927734	1.0465400390625	-0.002346940040588379	-0.09813790130615234	1.070699951171875	-0.018187599182128908	-0.07513710021972657	1.07993994140625	-0.00960025978088379	-0.19735400390625	1.0469100341796875	-0.012035699844360351	-0.17983700561523439	1.0601199951171876	-0.017211000442504884	-0.1638350067138672	1.07381005859375	-0.02550659942626953	-0.13398500061035157	1.0925400390625	-0.016490299224853514	-0.09178500366210937	1.0549599609375	-0.018998199462890625	-0.11237699890136718	1.0544599609375	-0.021275999069213868	-0.1377469940185547	1.0576400146484375	-0.04477239990234375	-0.13218299865722657	1.0911300048828125	-0.017324800491333007	-0.09591719818115234	1.045699951171875	-0.026397300720214845	-0.11376499938964844	1.04472998046875	-0.03893310165405273	-0.13549899291992187	1.047699951171875	-0.05640579986572265	-0.12381099700927735	1.0772099609375	-0.07877089691162109	-0.16964999389648439	1.0356400146484375	-0.0731511001586914	-0.15121299743652344	1.0440799560546874	-0.06792849731445312	-0.13608399963378906	1.051699951171875	-0.059142601013183596	-0.11323500061035156	1.061030029296875	-0.04357329940795898	-0.05914870071411133	1.100010009765625
26	0.8666666666666667	-0.024881900787353514	-0.12685399627685548	1.0340699462890626	-0.008064140319824218	-0.11418800354003907	1.046300048828125	-0.002872200012207031	-0.09802130126953125	1.07056005859375	-0.01860110092163086	-0.07498359680175781	1.080030029296875	-0.009735179901123046	-0.19726400756835938	1.0466700439453125	-0.012187000274658202	-0.17976899719238282	1.0599100341796874	-0.017400999069213868	-0.1636419982910156	1.073530029296875	-0.025924999237060545	-0.13389799499511718	1.0925899658203124	-0.01684630012512207	-0.0916719970703125	1.0546800537109375	-0.019306900024414063	-0.11223000335693359	1.0542900390625	-0.021465700149536134	-0.13760699462890624	1.0574000244140624	-0.0452332992553711	-0.13165899658203126	1.090719970703125	-0.01775250053405762	-0.09580419921875	1.0455799560546875	-0.026735599517822266	-0.11356700134277344	1.0445400390625	-0.03928779983520508	-0.13540199279785156	1.047449951171875	-0.05658890151977539	-0.12372799682617187	1.0770899658203126	-0.07920149993896484	-0.16947900390625	1.0353699951171875	-0.07356279754638671	-0.15108099365234376	1.0439200439453125	-0.06835199737548828	-0.13595799255371094	1.0516199951171874	-0.05945690155029297	-0.11326399993896484	1.060800048828125	-0.0438656997680664	-0.05898849868774414	1.0999100341796875
